<svg width="21" height="22" viewBox="0 0 21 22" fill="none" xmlns="http://www.w3.org/2000/svg">
<path d="M16.0762 7.21746V4.6072C16.4212 4.44598 16.7132 4.1901 16.9184 3.86936C17.1236 3.54861 17.2335 3.17618 17.2352 2.79542V2.73553C17.2352 1.62538 16.3353 0.725417 15.2252 0.725417H15.1652C14.0551 0.725417 13.1551 1.62538 13.1551 2.73553V2.79542C13.1568 3.17618 13.2667 3.54861 13.4719 3.86936C13.6771 4.1901 13.9691 4.44598 14.3141 4.6072V7.21746C13.3227 7.36929 12.389 7.78037 11.6076 8.40909L4.44875 2.83311C4.4998 2.64884 4.52643 2.45934 4.52943 2.26914C4.53031 1.82116 4.3983 1.38298 4.15011 1.01003C3.90193 0.637083 3.5487 0.346119 3.13513 0.173945C2.72155 0.00176959 2.2662 -0.0438809 1.82668 0.0427672C1.38716 0.129415 0.983206 0.344469 0.665921 0.660727C0.348636 0.976985 0.132273 1.38024 0.0441995 1.81948C-0.0438737 2.25872 0.000299852 2.71421 0.171133 3.12834C0.341965 3.54247 0.631782 3.89664 1.00392 4.14603C1.37607 4.39543 1.81381 4.52886 2.2618 4.52944C2.6537 4.52759 3.03826 4.42296 3.37708 4.226L10.4265 9.71148C9.13044 11.6693 9.16512 14.2209 10.5138 16.1429L8.36973 18.2876C8.19633 18.2322 8.01586 18.2028 7.83389 18.2003C6.80707 18.2012 5.97523 19.0339 5.97549 20.0607C5.97576 21.0874 6.80813 21.9197 7.83486 21.92C8.86168 21.9203 9.69441 21.0884 9.69529 20.0616C9.69287 19.8797 9.66342 19.6991 9.60789 19.5259L11.7289 17.404C13.6241 18.863 16.2271 18.9887 18.2541 17.7191C20.281 16.4495 21.3039 14.0526 20.8183 11.7107C20.3326 9.36877 18.4409 7.57646 16.0762 7.21746ZM15.1971 15.8024C14.8052 15.813 14.4152 15.7449 14.0501 15.6022C13.685 15.4595 13.3522 15.2452 13.0713 14.9717C12.7904 14.6983 12.5672 14.3714 12.4147 14.0102C12.2623 13.6491 12.1837 13.2611 12.1837 12.8691C12.1837 12.4771 12.2623 12.0891 12.4147 11.7279C12.5672 11.3668 12.7904 11.0399 13.0713 10.7664C13.3522 10.493 13.685 10.2786 14.0501 10.1359C14.4152 9.99328 14.8052 9.9252 15.1971 9.93574C16.7762 9.99104 18.028 11.2868 18.0288 12.867C18.0295 14.447 16.7791 15.744 15.2 15.8009" fill="#FF5C35"/>
</svg>
